<svg width="28" height="20" viewBox="0 0 28 20" fill="none" xmlns="http://www.w3.org/2000/svg">
<path d="M14.0405 2.48047C18.028 2.48047 22.0155 2.48047 26.0037 2.47969C26.1397 2.47969 26.2795 2.48203 26.41 2.45156C26.8701 2.34375 27.1741 1.91172 27.128 1.45078C27.0826 0.989844 26.7022 0.634375 26.2264 0.610157C26.1483 0.60625 26.0701 0.608594 25.9928 0.608594C18.0178 0.608594 10.042 0.608594 2.06702 0.609376C1.93109 0.609376 1.79124 0.604688 1.65999 0.632813C1.20061 0.73125 0.888115 1.16172 0.926397 1.62266C0.964678 2.08203 1.34437 2.44922 1.81468 2.47813C1.91155 2.48438 2.00999 2.48047 2.10686 2.48047C6.08499 2.48047 10.0631 2.48047 14.0405 2.48047Z" fill="black"/>
<path d="M15.912 10.9031C19.2753 10.9031 22.6394 10.9031 26.0027 10.9023C26.1386 10.9023 26.2785 10.9055 26.4089 10.875C26.8691 10.768 27.1738 10.3367 27.1292 9.87578C27.0847 9.41484 26.7042 9.05781 26.2292 9.03359C26.1511 9.02969 26.073 9.03203 25.9956 9.03203C19.2683 9.03203 12.541 9.03203 5.81361 9.03281C5.67767 9.03281 5.53783 9.02812 5.40658 9.05625C4.9472 9.15391 4.63314 9.58438 4.67064 10.0445C4.70814 10.5039 5.08705 10.8742 5.55736 10.9008C5.73236 10.9109 5.90814 10.9039 6.08392 10.9039C9.3597 10.9031 12.6355 10.9031 15.912 10.9031Z" fill="black"/>
<path d="M20.1096 19.3266C22.1182 19.3266 24.126 19.3289 26.1346 19.325C26.862 19.3234 27.333 18.6641 27.058 18.0312C26.8846 17.632 26.5612 17.4531 26.1268 17.4539C24.8495 17.457 23.5729 17.4547 22.2955 17.4547C19.5659 17.4547 16.8362 17.4531 14.1065 17.4555C13.376 17.4562 12.9057 18.0984 13.1596 18.7367C13.3088 19.1109 13.651 19.3258 14.1143 19.3258C16.1127 19.3273 18.1112 19.3266 20.1096 19.3266Z" fill="black"/>
</svg>
