<svg width="30" height="30" viewBox="0 0 30 30" fill="none" xmlns="http://www.w3.org/2000/svg">
<path d="M15.0405 7.48047C19.028 7.48047 23.0155 7.48047 27.0037 7.47969C27.1397 7.47969 27.2795 7.48203 27.41 7.45156C27.8701 7.34375 28.1741 6.91172 28.128 6.45078C28.0826 5.98984 27.7022 5.63438 27.2264 5.61016C27.1483 5.60625 27.0701 5.60859 26.9928 5.60859C19.0178 5.60859 11.042 5.60859 3.06702 5.60938C2.93109 5.60938 2.79124 5.60469 2.65999 5.63281C2.20061 5.73125 1.88811 6.16172 1.9264 6.62266C1.96468 7.08203 2.34437 7.44922 2.81468 7.47813C2.91155 7.48438 3.00999 7.48047 3.10686 7.48047C7.08499 7.48047 11.0631 7.48047 15.0405 7.48047Z" fill="black"/>
<path d="M16.912 15.9031C20.2753 15.9031 23.6394 15.9031 27.0027 15.9023C27.1386 15.9023 27.2785 15.9055 27.4089 15.875C27.8691 15.768 28.1738 15.3367 28.1292 14.8758C28.0847 14.4148 27.7042 14.0578 27.2292 14.0336C27.1511 14.0297 27.073 14.032 26.9956 14.032C20.2683 14.032 13.541 14.032 6.81361 14.0328C6.67767 14.0328 6.53783 14.0281 6.40658 14.0562C5.9472 14.1539 5.63314 14.5844 5.67064 15.0445C5.70814 15.5039 6.08705 15.8742 6.55736 15.9008C6.73236 15.9109 6.90814 15.9039 7.08392 15.9039C10.3597 15.9031 13.6355 15.9031 16.912 15.9031Z" fill="black"/>
<path d="M21.1096 24.3266C23.1182 24.3266 25.126 24.3289 27.1346 24.325C27.862 24.3234 28.333 23.6641 28.058 23.0312C27.8846 22.632 27.5612 22.4531 27.1268 22.4539C25.8495 22.457 24.5729 22.4547 23.2955 22.4547C20.5659 22.4547 17.8362 22.4531 15.1065 22.4555C14.376 22.4562 13.9057 23.0984 14.1596 23.7367C14.3088 24.1109 14.651 24.3258 15.1143 24.3258C17.1127 24.3273 19.1112 24.3266 21.1096 24.3266Z" fill="black"/>
</svg>
